<svg width="48" height="144" viewBox="0 0 48 144" fill="none" xmlns="http://www.w3.org/2000/svg">
<path d="M9 22H15C20 22 22 20 22 15V9C22 4 20 2 15 2H9C4 2 2 4 2 9V15C2 20 4 22 9 22Z" stroke="#9197B3" stroke-width="1.5" stroke-linecap="round" stroke-linejoin="round"/>
<path d="M16.2799 13.61C15.1499 14.74 13.5299 15.09 12.0999 14.64L9.50995 17.22C9.32995 17.41 8.95995 17.53 8.68995 17.49L7.48995 17.33C7.08995 17.28 6.72995 16.9 6.66995 16.51L6.50995 15.31C6.46995 15.05 6.59995 14.68 6.77995 14.49L9.35995 11.91C8.91995 10.48 9.25995 8.86001 10.3899 7.73001C12.0099 6.11001 14.6499 6.11001 16.2799 7.73001C17.8999 9.34001 17.8999 11.98 16.2799 13.61Z" stroke="#9197B3" stroke-width="1.5" stroke-miterlimit="10" stroke-linecap="round" stroke-linejoin="round"/>
<path d="M10.45 16.28L9.59998 15.42" stroke="#9197B3" stroke-width="1.5" stroke-miterlimit="10" stroke-linecap="round" stroke-linejoin="round"/>
<path d="M13.3945 10.7H13.4035" stroke="#9197B3" stroke-width="2" stroke-linecap="round" stroke-linejoin="round"/>
<path d="M15 47.75H9C3.57 47.75 1.25 45.43 1.25 40V34C1.25 28.57 3.57 26.25 9 26.25H15C20.43 26.25 22.75 28.57 22.75 34V40C22.75 45.43 20.43 47.75 15 47.75ZM9 27.75C4.39 27.75 2.75 29.39 2.75 34V40C2.75 44.61 4.39 46.25 9 46.25H15C19.61 46.25 21.25 44.61 21.25 40V34C21.25 29.39 19.61 27.75 15 27.75H9Z" fill="#9197B3"/>
<path d="M12.0006 37.0797C11.8706 37.0797 11.7406 37.0497 11.6206 36.9797L6.32061 33.9197C5.96061 33.7097 5.84059 33.2497 6.05059 32.8997C6.26059 32.5397 6.72061 32.4197 7.07061 32.6297L11.9906 35.4797L16.8806 32.6497C17.2406 32.4397 17.7006 32.5697 17.9006 32.9197C18.1006 33.2697 17.9806 33.7397 17.6306 33.9397L12.3706 36.9797C12.2606 37.0397 12.1306 37.0797 12.0006 37.0797Z" fill="#9197B3"/>
<path d="M12 42.5201C11.59 42.5201 11.25 42.1801 11.25 41.7701V36.3301C11.25 35.9201 11.59 35.5801 12 35.5801C12.41 35.5801 12.75 35.9201 12.75 36.3301V41.7701C12.75 42.1801 12.41 42.5201 12 42.5201Z" fill="#9197B3"/>
<path d="M12.0002 42.7498C11.4202 42.7498 10.8503 42.6198 10.3903 42.3698L7.19025 40.5898C6.23025 40.0598 5.49023 38.7898 5.49023 37.6898V34.2998C5.49023 33.2098 6.24025 31.9398 7.19025 31.3998L10.3903 29.6198C11.3103 29.1098 12.6902 29.1098 13.6102 29.6198L16.8102 31.3998C17.7702 31.9298 18.5103 33.1998 18.5103 34.2998V37.6898C18.5103 38.7798 17.7602 40.0498 16.8102 40.5898L13.6102 42.3698C13.1502 42.6298 12.5802 42.7498 12.0002 42.7498ZM12.0002 30.7498C11.6702 30.7498 11.3502 30.8098 11.1202 30.9398L7.92026 32.7198C7.43026 32.9898 6.99023 33.7498 6.99023 34.2998V37.6898C6.99023 38.2498 7.43026 38.9998 7.92026 39.2698L11.1202 41.0498C11.5802 41.3098 12.4202 41.3098 12.8802 41.0498L16.0802 39.2698C16.5702 38.9998 17.0103 38.2398 17.0103 37.6898V34.2998C17.0103 33.7398 16.5702 32.9898 16.0802 32.7198L12.8802 30.9398C12.6502 30.8098 12.3302 30.7498 12.0002 30.7498Z" fill="#9197B3"/>
<path d="M15.0006 70.7498H9.00063C7.68063 70.7498 6.58063 70.6198 5.65063 70.3398C5.31063 70.2398 5.09063 69.9098 5.11063 69.5598C5.36063 66.5698 8.39063 64.2197 12.0006 64.2197C15.6106 64.2197 18.6306 66.5598 18.8906 69.5598C18.9206 69.9198 18.7006 70.2398 18.3506 70.3398C17.4206 70.6198 16.3206 70.7498 15.0006 70.7498ZM6.72063 69.0598C7.38063 69.1898 8.13063 69.2498 9.00063 69.2498H15.0006C15.8706 69.2498 16.6206 69.1898 17.2806 69.0598C16.7506 67.1398 14.5606 65.7197 12.0006 65.7197C9.44063 65.7197 7.25063 67.1398 6.72063 69.0598Z" fill="#9197B3"/>
<path d="M15 50H9C4 50 2 52 2 57V63C2 66.78 3.14 68.85 5.86 69.62C6.08 67.02 8.75 64.97 12 64.97C15.25 64.97 17.92 67.02 18.14 69.62C20.86 68.85 22 66.78 22 63V57C22 52 20 50 15 50ZM12 62.17C10.02 62.17 8.42 60.56 8.42 58.58C8.42 56.6 10.02 55 12 55C13.98 55 15.58 56.6 15.58 58.58C15.58 60.56 13.98 62.17 12 62.17Z" stroke="#9197B3" stroke-width="1.5" stroke-linecap="round" stroke-linejoin="round"/>
<path d="M11.9999 62.92C9.60992 62.92 7.66992 60.97 7.66992 58.58C7.66992 56.19 9.60992 54.25 11.9999 54.25C14.3899 54.25 16.3299 56.19 16.3299 58.58C16.3299 60.97 14.3899 62.92 11.9999 62.92ZM11.9999 55.75C10.4399 55.75 9.16992 57.02 9.16992 58.58C9.16992 60.15 10.4399 61.42 11.9999 61.42C13.5599 61.42 14.8299 60.15 14.8299 58.58C14.8299 57.02 13.5599 55.75 11.9999 55.75Z" fill="#9197B3"/>
<path d="M10.7516 88.8604V90.8904C10.7516 92.6104 9.15158 94.0004 7.18158 94.0004C5.21158 94.0004 3.60156 92.6104 3.60156 90.8904V88.8604C3.60156 90.5804 5.20158 91.8004 7.18158 91.8004C9.15158 91.8004 10.7516 90.5704 10.7516 88.8604Z" stroke="#9197B3" stroke-width="1.5" stroke-linecap="round" stroke-linejoin="round"/>
<path d="M10.7501 86.11C10.7501 86.61 10.6101 87.07 10.3701 87.47C9.78006 88.44 8.57004 89.05 7.17004 89.05C5.77004 89.05 4.56003 88.43 3.97003 87.47C3.73003 87.07 3.59009 86.61 3.59009 86.11C3.59009 85.25 3.99007 84.48 4.63007 83.92C5.28007 83.35 6.17003 83.01 7.16003 83.01C8.15003 83.01 9.04006 83.36 9.69006 83.92C10.3501 84.47 10.7501 85.25 10.7501 86.11Z" stroke="#9197B3" stroke-width="1.5" stroke-linecap="round" stroke-linejoin="round"/>
<path d="M10.7516 86.11V88.86C10.7516 90.58 9.15158 91.8 7.18158 91.8C5.21158 91.8 3.60156 90.57 3.60156 88.86V86.11C3.60156 84.39 5.20158 83 7.18158 83C8.17158 83 9.06161 83.35 9.71161 83.91C10.3516 84.47 10.7516 85.25 10.7516 86.11Z" stroke="#9197B3" stroke-width="1.5" stroke-linecap="round" stroke-linejoin="round"/>
<path d="M22 82.9699V85.03C22 85.58 21.56 86.0299 21 86.0499H19.0399C17.9599 86.0499 16.97 85.2599 16.88 84.1799C16.82 83.5499 17.0599 82.9599 17.4799 82.5499C17.8499 82.1699 18.36 81.95 18.92 81.95H21C21.56 81.97 22 82.4199 22 82.9699Z" stroke="#9197B3" stroke-width="1.5" stroke-linecap="round" stroke-linejoin="round"/>
<path d="M2 82.5V80.5C2 77.78 3.64 75.88 6.19 75.56C6.45 75.52 6.72 75.5 7 75.5H16C16.26 75.5 16.51 75.51 16.75 75.55C19.33 75.85 21 77.76 21 80.5V81.95H18.92C18.36 81.95 17.85 82.17 17.48 82.55C17.06 82.96 16.82 83.55 16.88 84.18C16.97 85.26 17.96 86.05 19.04 86.05H21V87.5C21 90.5 19 92.5 16 92.5H13.5" stroke="#9197B3" stroke-width="1.5" stroke-linecap="round" stroke-linejoin="round"/>
<path d="M12 118.75C11.37 118.75 10.78 118.51 10.34 118.06L8.82001 116.54C8.70001 116.42 8.38 116.29 8.22 116.29H6.06C4.76 116.29 3.70999 115.24 3.70999 113.94V111.78C3.70999 111.62 3.57999 111.3 3.45999 111.18L1.94 109.66C1.5 109.22 1.25 108.63 1.25 108C1.25 107.37 1.49 106.78 1.94 106.34L3.45999 104.82C3.57999 104.7 3.70999 104.38 3.70999 104.22V102.06C3.70999 100.76 4.76 99.7103 6.06 99.7103H8.22C8.38 99.7103 8.70001 99.5803 8.82001 99.4603L10.34 97.9403C11.22 97.0603 12.78 97.0603 13.66 97.9403L15.18 99.4603C15.3 99.5803 15.62 99.7103 15.78 99.7103H17.94C19.24 99.7103 20.29 100.76 20.29 102.06V104.22C20.29 104.38 20.42 104.7 20.54 104.82L22.06 106.34C22.5 106.78 22.75 107.37 22.75 108C22.75 108.63 22.51 109.22 22.06 109.66L20.54 111.18C20.42 111.3 20.29 111.62 20.29 111.78V113.94C20.29 115.24 19.24 116.29 17.94 116.29H15.78C15.62 116.29 15.3 116.42 15.18 116.54L13.66 118.06C13.22 118.51 12.63 118.75 12 118.75ZM4.51999 110.12C4.91999 110.52 5.20999 111.22 5.20999 111.78V113.94C5.20999 114.41 5.59 114.79 6.06 114.79H8.22C8.78 114.79 9.48001 115.08 9.88 115.48L11.4 117C11.72 117.32 12.28 117.32 12.6 117L14.12 115.48C14.52 115.08 15.22 114.79 15.78 114.79H17.94C18.41 114.79 18.79 114.41 18.79 113.94V111.78C18.79 111.22 19.08 110.52 19.48 110.12L21 108.6C21.16 108.44 21.25 108.23 21.25 108C21.25 107.77 21.16 107.56 21 107.4L19.48 105.88C19.08 105.48 18.79 104.78 18.79 104.22V102.06C18.79 101.59 18.41 101.21 17.94 101.21H15.78C15.22 101.21 14.52 100.92 14.12 100.52L12.6 99.0003C12.28 98.6803 11.72 98.6803 11.4 99.0003L9.88 100.52C9.48001 100.92 8.78 101.21 8.22 101.21H6.06C5.59 101.21 5.20999 101.59 5.20999 102.06V104.22C5.20999 104.78 4.91999 105.48 4.51999 105.88L3 107.4C2.84 107.56 2.75 107.77 2.75 108C2.75 108.23 2.84 108.44 3 108.6L4.51999 110.12Z" fill="#9197B3"/>
<path d="M15.0002 112C14.4402 112 13.9902 111.55 13.9902 111C13.9902 110.45 14.4402 110 14.9902 110C15.5402 110 15.9902 110.45 15.9902 111C15.9902 111.55 15.5502 112 15.0002 112Z" fill="#9197B3"/>
<path d="M9.01001 106C8.45001 106 8 105.55 8 105C8 104.45 8.45 104 9 104C9.55 104 10 104.45 10 105C10 105.55 9.56001 106 9.01001 106Z" fill="#9197B3"/>
<path d="M8.99945 111.749C8.80945 111.749 8.61945 111.679 8.46945 111.529C8.17945 111.239 8.17945 110.759 8.46945 110.469L14.4695 104.469C14.7595 104.179 15.2395 104.179 15.5295 104.469C15.8195 104.759 15.8195 105.24 15.5295 105.53L9.52945 111.529C9.37945 111.679 9.18945 111.749 8.99945 111.749Z" fill="#9197B3"/>
<path d="M8 142.32C7.72 142.32 7.42998 142.25 7.16998 142.11C6.59998 141.81 6.25 141.21 6.25 140.57V139.15C3.23 138.84 1.25 136.62 1.25 133.44V127.44C1.25 124 3.56 121.69 7 121.69H17C20.44 121.69 22.75 124 22.75 127.44V133.44C22.75 136.88 20.44 139.19 17 139.19H13.23L8.96997 142.03C8.67997 142.22 8.34 142.32 8 142.32ZM7 123.18C4.42 123.18 2.75 124.85 2.75 127.43V133.43C2.75 136.01 4.42 137.68 7 137.68C7.41 137.68 7.75 138.02 7.75 138.43V140.56C7.75 140.69 7.83 140.75 7.88 140.78C7.93001 140.81 8.03001 140.84 8.14001 140.77L12.59 137.81C12.71 137.73 12.86 137.68 13.01 137.68H17.01C19.59 137.68 21.26 136.01 21.26 133.43V127.43C21.26 124.85 19.59 123.18 17.01 123.18H7Z" fill="#9197B3"/>
<path d="M11.9998 132.11C11.5898 132.11 11.2498 131.77 11.2498 131.36V131.15C11.2498 129.99 12.0998 129.42 12.4198 129.2C12.7898 128.95 12.9098 128.78 12.9098 128.52C12.9098 128.02 12.4998 127.61 11.9998 127.61C11.4998 127.61 11.0898 128.02 11.0898 128.52C11.0898 128.93 10.7498 129.27 10.3398 129.27C9.92984 129.27 9.58984 128.93 9.58984 128.52C9.58984 127.19 10.6698 126.11 11.9998 126.11C13.3298 126.11 14.4098 127.19 14.4098 128.52C14.4098 129.66 13.5698 130.23 13.2598 130.44C12.8698 130.7 12.7498 130.87 12.7498 131.15V131.36C12.7498 131.78 12.4098 132.11 11.9998 132.11Z" fill="#9197B3"/>
<path d="M12 134.6C11.58 134.6 11.25 134.26 11.25 133.85C11.25 133.44 11.59 133.1 12 133.1C12.41 133.1 12.75 133.44 12.75 133.85C12.75 134.26 12.42 134.6 12 134.6Z" fill="#9197B3"/>
<path d="M33 22H39C44 22 46 20 46 15V9C46 4 44 2 39 2H33C28 2 26 4 26 9V15C26 20 28 22 33 22Z" stroke="white" stroke-width="1.5" stroke-linecap="round" stroke-linejoin="round"/>
<path d="M40.2799 13.61C39.1499 14.74 37.5299 15.09 36.0999 14.64L33.51 17.22C33.33 17.41 32.96 17.53 32.69 17.49L31.49 17.33C31.09 17.28 30.73 16.9 30.67 16.51L30.51 15.31C30.47 15.05 30.6 14.68 30.78 14.49L33.36 11.91C32.92 10.48 33.26 8.86001 34.3899 7.73001C36.0099 6.11001 38.6499 6.11001 40.2799 7.73001C41.8999 9.34001 41.8999 11.98 40.2799 13.61Z" stroke="white" stroke-width="1.5" stroke-miterlimit="10" stroke-linecap="round" stroke-linejoin="round"/>
<path d="M34.45 16.28L33.6 15.42" stroke="white" stroke-width="1.5" stroke-miterlimit="10" stroke-linecap="round" stroke-linejoin="round"/>
<path d="M37.3945 10.7H37.4035" stroke="white" stroke-width="2" stroke-linecap="round" stroke-linejoin="round"/>
<path d="M39 47.75H33C27.57 47.75 25.25 45.43 25.25 40V34C25.25 28.57 27.57 26.25 33 26.25H39C44.43 26.25 46.75 28.57 46.75 34V40C46.75 45.43 44.43 47.75 39 47.75ZM33 27.75C28.39 27.75 26.75 29.39 26.75 34V40C26.75 44.61 28.39 46.25 33 46.25H39C43.61 46.25 45.25 44.61 45.25 40V34C45.25 29.39 43.61 27.75 39 27.75H33Z" fill="white"/>
<path d="M36.0006 37.0797C35.8706 37.0797 35.7406 37.0497 35.6206 36.9797L30.3206 33.9197C29.9606 33.7097 29.8406 33.2497 30.0506 32.8997C30.2606 32.5397 30.7206 32.4197 31.0706 32.6297L35.9906 35.4797L40.8806 32.6497C41.2406 32.4397 41.7006 32.5697 41.9006 32.9197C42.1006 33.2697 41.9806 33.7397 41.6306 33.9397L36.3706 36.9797C36.2606 37.0397 36.1306 37.0797 36.0006 37.0797Z" fill="white"/>
<path d="M36 42.5201C35.59 42.5201 35.25 42.1801 35.25 41.7701V36.3301C35.25 35.9201 35.59 35.5801 36 35.5801C36.41 35.5801 36.75 35.9201 36.75 36.3301V41.7701C36.75 42.1801 36.41 42.5201 36 42.5201Z" fill="white"/>
<path d="M36.0002 42.7498C35.4202 42.7498 34.8503 42.6198 34.3903 42.3698L31.1903 40.5898C30.2303 40.0598 29.4902 38.7898 29.4902 37.6898V34.2998C29.4902 33.2098 30.2403 31.9398 31.1903 31.3998L34.3903 29.6198C35.3103 29.1098 36.6902 29.1098 37.6102 29.6198L40.8102 31.3998C41.7702 31.9298 42.5103 33.1998 42.5103 34.2998V37.6898C42.5103 38.7798 41.7602 40.0498 40.8102 40.5898L37.6102 42.3698C37.1502 42.6298 36.5802 42.7498 36.0002 42.7498ZM36.0002 30.7498C35.6702 30.7498 35.3502 30.8098 35.1202 30.9398L31.9203 32.7198C31.4303 32.9898 30.9902 33.7498 30.9902 34.2998V37.6898C30.9902 38.2498 31.4303 38.9998 31.9203 39.2698L35.1202 41.0498C35.5802 41.3098 36.4202 41.3098 36.8802 41.0498L40.0802 39.2698C40.5702 38.9998 41.0103 38.2398 41.0103 37.6898V34.2998C41.0103 33.7398 40.5702 32.9898 40.0802 32.7198L36.8802 30.9398C36.6502 30.8098 36.3302 30.7498 36.0002 30.7498Z" fill="white"/>
<path d="M39.0006 70.7498H33.0006C31.6806 70.7498 30.5806 70.6198 29.6506 70.3398C29.3106 70.2398 29.0906 69.9098 29.1106 69.5598C29.3606 66.5698 32.3906 64.2197 36.0006 64.2197C39.6106 64.2197 42.6306 66.5598 42.8906 69.5598C42.9206 69.9198 42.7006 70.2398 42.3506 70.3398C41.4206 70.6198 40.3206 70.7498 39.0006 70.7498ZM30.7206 69.0598C31.3806 69.1898 32.1306 69.2498 33.0006 69.2498H39.0006C39.8706 69.2498 40.6206 69.1898 41.2806 69.0598C40.7506 67.1398 38.5606 65.7197 36.0006 65.7197C33.4406 65.7197 31.2506 67.1398 30.7206 69.0598Z" fill="white"/>
<path d="M39 50H33C28 50 26 52 26 57V63C26 66.78 27.14 68.85 29.86 69.62C30.08 67.02 32.75 64.97 36 64.97C39.25 64.97 41.92 67.02 42.14 69.62C44.86 68.85 46 66.78 46 63V57C46 52 44 50 39 50ZM36 62.17C34.02 62.17 32.42 60.56 32.42 58.58C32.42 56.6 34.02 55 36 55C37.98 55 39.58 56.6 39.58 58.58C39.58 60.56 37.98 62.17 36 62.17Z" stroke="white" stroke-width="1.5" stroke-linecap="round" stroke-linejoin="round"/>
<path d="M35.9999 62.92C33.6099 62.92 31.6699 60.97 31.6699 58.58C31.6699 56.19 33.6099 54.25 35.9999 54.25C38.3899 54.25 40.3299 56.19 40.3299 58.58C40.3299 60.97 38.3899 62.92 35.9999 62.92ZM35.9999 55.75C34.4399 55.75 33.1699 57.02 33.1699 58.58C33.1699 60.15 34.4399 61.42 35.9999 61.42C37.5599 61.42 38.8299 60.15 38.8299 58.58C38.8299 57.02 37.5599 55.75 35.9999 55.75Z" fill="white"/>
<path d="M34.7516 88.8604V90.8904C34.7516 92.6104 33.1516 94.0004 31.1816 94.0004C29.2116 94.0004 27.6016 92.6104 27.6016 90.8904V88.8604C27.6016 90.5804 29.2016 91.8004 31.1816 91.8004C33.1516 91.8004 34.7516 90.5704 34.7516 88.8604Z" stroke="white" stroke-width="1.5" stroke-linecap="round" stroke-linejoin="round"/>
<path d="M34.7501 86.11C34.7501 86.61 34.6101 87.07 34.3701 87.47C33.7801 88.44 32.57 89.05 31.17 89.05C29.77 89.05 28.56 88.43 27.97 87.47C27.73 87.07 27.5901 86.61 27.5901 86.11C27.5901 85.25 27.9901 84.48 28.6301 83.92C29.2801 83.35 30.17 83.01 31.16 83.01C32.15 83.01 33.0401 83.36 33.6901 83.92C34.3501 84.47 34.7501 85.25 34.7501 86.11Z" stroke="white" stroke-width="1.5" stroke-linecap="round" stroke-linejoin="round"/>
<path d="M34.7516 86.11V88.86C34.7516 90.58 33.1516 91.8 31.1816 91.8C29.2116 91.8 27.6016 90.57 27.6016 88.86V86.11C27.6016 84.39 29.2016 83 31.1816 83C32.1716 83 33.0616 83.35 33.7116 83.91C34.3516 84.47 34.7516 85.25 34.7516 86.11Z" stroke="white" stroke-width="1.5" stroke-linecap="round" stroke-linejoin="round"/>
<path d="M46 82.9699V85.03C46 85.58 45.56 86.0299 45 86.0499H43.0399C41.9599 86.0499 40.97 85.2599 40.88 84.1799C40.82 83.5499 41.0599 82.9599 41.4799 82.5499C41.8499 82.1699 42.36 81.95 42.92 81.95H45C45.56 81.97 46 82.4199 46 82.9699Z" stroke="white" stroke-width="1.5" stroke-linecap="round" stroke-linejoin="round"/>
<path d="M26 82.5V80.5C26 77.78 27.64 75.88 30.19 75.56C30.45 75.52 30.72 75.5 31 75.5H40C40.26 75.5 40.51 75.51 40.75 75.55C43.33 75.85 45 77.76 45 80.5V81.95H42.92C42.36 81.95 41.85 82.17 41.48 82.55C41.06 82.96 40.82 83.55 40.88 84.18C40.97 85.26 41.96 86.05 43.04 86.05H45V87.5C45 90.5 43 92.5 40 92.5H37.5" stroke="white" stroke-width="1.5" stroke-linecap="round" stroke-linejoin="round"/>
<path d="M36 118.75C35.37 118.75 34.78 118.51 34.34 118.06L32.82 116.54C32.7 116.42 32.38 116.29 32.22 116.29H30.06C28.76 116.29 27.71 115.24 27.71 113.94V111.78C27.71 111.62 27.58 111.3 27.46 111.18L25.94 109.66C25.5 109.22 25.25 108.63 25.25 108C25.25 107.37 25.49 106.78 25.94 106.34L27.46 104.82C27.58 104.7 27.71 104.38 27.71 104.22V102.06C27.71 100.76 28.76 99.7103 30.06 99.7103H32.22C32.38 99.7103 32.7 99.5803 32.82 99.4603L34.34 97.9403C35.22 97.0603 36.78 97.0603 37.66 97.9403L39.18 99.4603C39.3 99.5803 39.62 99.7103 39.78 99.7103H41.94C43.24 99.7103 44.29 100.76 44.29 102.06V104.22C44.29 104.38 44.42 104.7 44.54 104.82L46.06 106.34C46.5 106.78 46.75 107.37 46.75 108C46.75 108.63 46.51 109.22 46.06 109.66L44.54 111.18C44.42 111.3 44.29 111.62 44.29 111.78V113.94C44.29 115.24 43.24 116.29 41.94 116.29H39.78C39.62 116.29 39.3 116.42 39.18 116.54L37.66 118.06C37.22 118.51 36.63 118.75 36 118.75ZM28.52 110.12C28.92 110.52 29.21 111.22 29.21 111.78V113.94C29.21 114.41 29.59 114.79 30.06 114.79H32.22C32.78 114.79 33.48 115.08 33.88 115.48L35.4 117C35.72 117.32 36.28 117.32 36.6 117L38.12 115.48C38.52 115.08 39.22 114.79 39.78 114.79H41.94C42.41 114.79 42.79 114.41 42.79 113.94V111.78C42.79 111.22 43.08 110.52 43.48 110.12L45 108.6C45.16 108.44 45.25 108.23 45.25 108C45.25 107.77 45.16 107.56 45 107.4L43.48 105.88C43.08 105.48 42.79 104.78 42.79 104.22V102.06C42.79 101.59 42.41 101.21 41.94 101.21H39.78C39.22 101.21 38.52 100.92 38.12 100.52L36.6 99.0003C36.28 98.6803 35.72 98.6803 35.4 99.0003L33.88 100.52C33.48 100.92 32.78 101.21 32.22 101.21H30.06C29.59 101.21 29.21 101.59 29.21 102.06V104.22C29.21 104.78 28.92 105.48 28.52 105.88L27 107.4C26.84 107.56 26.75 107.77 26.75 108C26.75 108.23 26.84 108.44 27 108.6L28.52 110.12Z" fill="white"/>
<path d="M39.0002 112C38.4402 112 37.9902 111.55 37.9902 111C37.9902 110.45 38.4402 110 38.9902 110C39.5402 110 39.9902 110.45 39.9902 111C39.9902 111.55 39.5502 112 39.0002 112Z" fill="white"/>
<path d="M33.01 106C32.45 106 32 105.55 32 105C32 104.45 32.45 104 33 104C33.55 104 34 104.45 34 105C34 105.55 33.56 106 33.01 106Z" fill="white"/>
<path d="M32.9995 111.749C32.8095 111.749 32.6195 111.679 32.4695 111.529C32.1795 111.239 32.1795 110.759 32.4695 110.469L38.4695 104.469C38.7595 104.179 39.2395 104.179 39.5295 104.469C39.8195 104.759 39.8195 105.24 39.5295 105.53L33.5295 111.529C33.3795 111.679 33.1895 111.749 32.9995 111.749Z" fill="white"/>
<path d="M32 142.32C31.72 142.32 31.43 142.25 31.17 142.11C30.6 141.81 30.25 141.21 30.25 140.57V139.15C27.23 138.84 25.25 136.62 25.25 133.44V127.44C25.25 124 27.56 121.69 31 121.69H41C44.44 121.69 46.75 124 46.75 127.44V133.44C46.75 136.88 44.44 139.19 41 139.19H37.23L32.97 142.03C32.68 142.22 32.34 142.32 32 142.32ZM31 123.18C28.42 123.18 26.75 124.85 26.75 127.43V133.43C26.75 136.01 28.42 137.68 31 137.68C31.41 137.68 31.75 138.02 31.75 138.43V140.56C31.75 140.69 31.83 140.75 31.88 140.78C31.93 140.81 32.03 140.84 32.14 140.77L36.59 137.81C36.71 137.73 36.86 137.68 37.01 137.68H41.01C43.59 137.68 45.26 136.01 45.26 133.43V127.43C45.26 124.85 43.59 123.18 41.01 123.18H31Z" fill="white"/>
<path d="M35.9998 132.11C35.5898 132.11 35.2498 131.77 35.2498 131.36V131.15C35.2498 129.99 36.0998 129.42 36.4198 129.2C36.7898 128.95 36.9098 128.78 36.9098 128.52C36.9098 128.02 36.4998 127.61 35.9998 127.61C35.4998 127.61 35.0898 128.02 35.0898 128.52C35.0898 128.93 34.7498 129.27 34.3398 129.27C33.9298 129.27 33.5898 128.93 33.5898 128.52C33.5898 127.19 34.6698 126.11 35.9998 126.11C37.3298 126.11 38.4098 127.19 38.4098 128.52C38.4098 129.66 37.5698 130.23 37.2598 130.44C36.8698 130.7 36.7498 130.87 36.7498 131.15V131.36C36.7498 131.78 36.4098 132.11 35.9998 132.11Z" fill="white"/>
<path d="M36 134.6C35.58 134.6 35.25 134.26 35.25 133.85C35.25 133.44 35.59 133.1 36 133.1C36.41 133.1 36.75 133.44 36.75 133.85C36.75 134.26 36.42 134.6 36 134.6Z" fill="white"/>
</svg>
